<svg version="1.1" viewBox="0 0 200 200" xmlns="http://www.w3.org/2000/svg">
  <path id="astronaut" fill="#000" d="m 63.675761,92.092757 c -19.103967,3.394795 -26.990779,23.600553 -26.991926,40.646293 -5.76e-4,5.97209 -0.486428,12.82703 3.749577,17.64162 4.203848,4.77678 11.998202,6.27782 18.073681,6.40262 l 3.445775,11.44965 c -6.739362,2.60253 -13.4236,13.04974 -8.617313,19.93728 2.275363,3.26146 6.657243,4.47799 10.340206,5.31612 8.192336,1.86398 18.151782,1.85081 26.41765,0.46199 3.355007,-0.56391 7.039151,-2.64835 10.337329,-2.75597 3.62841,-0.11825 8.32785,2.33975 12.06019,2.94315 8.54553,1.38141 19.25731,1.21998 27.56625,-1.30815 9.2232,-2.80628 11.64154,-11.03741 6.06282,-18.86098 -1.62925,-2.28541 -5.5833,-4.30392 -6.39767,-6.92991 -0.58287,-1.88121 1.29446,-6.13874 2.06803,-7.93004 1.36167,-3.15495 5.18074,-2.72619 8.02983,-3.41026 4.43759,-1.06601 8.85623,-2.96091 11.40955,-6.92991 3.04723,-4.7379 2.3736,-10.67279 2.3736,-16.02721 0,-17.09663 -7.68125,-37.331639 -26.99194,-40.646293 6.52685,-9.273149 12.29967,-17.076614 14.10528,-28.624162 6.50505,-41.602905 -40.56541,-73.115783 -76.703588,-51.406688 -5.291567,3.178452 -9.955999,7.046673 -13.774495,11.905357 -4.275638,5.439733 -7.493418,11.630562 -9.263974,18.319472 -1.97041,7.445702 -2.26273,15.313893 -0.9384,22.899291 1.880246,10.766675 7.5698,18.214724 13.639538,26.90673 M 135.46282,34.271955 c -22.53312,-9.351519 -48.080108,-9.349796 -70.638467,0 13.0371,-26.0903322 57.870127,-26.7555417 70.638467,0 m -39.62645,3.02559 c 4.116526,-0.483719 10.42002,-0.838705 14.32353,0.754542 2.66698,1.08832 2.68651,4.524861 0,5.606862 -3.13051,1.260618 -7.07706,-0.210646 -10.303483,-0.210646 -6.525695,0 -14.575058,0.531258 -20.674657,2.993514 -2.755473,1.112305 -5.061272,2.85784 -6.3632,5.577706 -0.986646,2.060402 -0.949316,5.992774 -3.996533,6.080958 C 60.831272,58.33267 68.892632,45.4818 71.143912,43.553626 77.817807,37.83742 87.626787,38.263307 95.83637,37.297545 M 65.398649,77.208198 c 6.174834,4.344615 14.476288,5.50963 21.823259,6.386059 17.209922,2.052934 31.966452,-1.142082 48.240912,-5.813533 C 124.8274,96.38811 98.851969,102.68312 80.330352,92.413944 75.435049,89.699822 65.609417,83.46945 65.398649,77.208198 m 78.104311,69.842932 c 0.01,-3.45837 0.57316,-6.84235 0.57426,-10.30469 10e-4,-3.4498 1.01309,-8.8758 -0.67708,-11.99067 -2.24492,-4.1379 -7.17811,-2.24414 -8.26239,1.68655 -2.90309,10.52333 2.94788,27.34004 -4.91999,36.45401 -1.82568,2.11474 -6.5665,0.66751 -9.11237,0.77915 -5.87908,0.259 -10.87084,2.71699 -16.08029,5.12999 0,-3.42573 0.8712,-8.29815 -0.75691,-11.42447 -1.81593,-3.487 -6.32246,-3.48642 -8.102781,0 -1.595951,3.12517 -0.903359,7.4549 -0.903359,10.85199 -5.077919,-2.10445 -9.900286,-4.31422 -15.505994,-4.55751 -2.75375,-0.11921 -7.302753,1.43976 -9.390321,-0.77743 -2.321303,-2.46513 -2.762936,-6.94025 -3.290144,-10.1221 -1.422528,-8.58094 0.410639,-18.63659 -1.926186,-26.89811 -1.112986,-3.93467 -6.208142,-4.77907 -8.262403,-1.0934 -1.627554,2.91965 -0.713846,8.14069 -0.674798,11.38947 0.0432,3.63761 0.572001,7.21964 0.572001,10.87722 -10.262675,-0.81405 -10.337335,-6.06664 -10.337335,-14.88456 0,-10.71574 1.918152,-20.74046 11.485928,-27.18148 3.691573,-2.48514 9.734321,-5.938965 14.357406,-5.795245 3.885114,0.1216 7.82938,3.494425 11.485923,4.721245 7.224628,2.42448 14.831186,3.13838 22.397573,2.39643 5.2031,-0.51005 10.17653,-2.14395 14.93169,-4.24787 2.23287,-0.98807 4.93608,-3.352425 7.46587,-3.149155 14.94778,1.199295 23.84073,14.830705 25.4327,28.103735 1.14513,9.54043 1.40703,19.51933 -10.501,20.0369 M 78.036039,108.5045 c -3.09431,0.62629 -4.039598,3.7189 -3.991934,6.48798 0.09936,5.75116 0.545582,14.42713 4.686258,18.83187 7.325725,7.7926 27.332507,6.23775 36.632067,3.47096 8.80051,-2.61856 10.04385,-10.80224 10.81396,-18.86791 0.34272,-3.58778 0.54447,-9.74485 -4.49668,-9.98528 -7.59336,-0.3624 -3.94142,13.81348 -6.81,17.91757 -3.4343,4.9125 -17.858925,3.50246 -23.053436,2.69354 -8.279053,-1.28925 -7.708198,-7.65065 -8.063115,-14.63322 -0.158496,-3.11718 -1.977302,-6.67287 -5.71712,-5.91551 m -16.657462,74.61343 c 1.827408,-10.05622 16.07972,-11.53266 24.120443,-9.0332 2.841047,0.88279 10.074886,4.31421 8.779846,8.30101 -0.920016,2.83147 -8.644313,2.80461 -11.07703,2.97121 -3.028266,0.20682 -6.154737,0.11681 -9.188744,0.0431 -4.312962,-0.10533 -8.542654,-0.97726 -12.634515,-2.28134 m 44.795123,0 c 1.82913,-10.06767 16.08546,-11.54066 24.12042,-9.03321 2.83992,0.88624 10.07549,4.31192 8.77987,8.30102 -0.92006,2.83146 -8.64431,2.8046 -11.07705,2.97121 -3.02827,0.20681 -6.15475,0.11681 -9.18873,0.0431 -4.31295,-0.10532 -8.54266,-0.97725 -12.63451,-2.28134 z"/>
  <style>
    @media (prefers-color-scheme:dark){
      #astronaut {
        filter: invert(100%);
      }
    }
  </style>
</svg>
